<?xml version="1.0" encoding="utf-8"?>
<!-- Generator: Adobe Illustrator 18.1.1, SVG Export Plug-In . SVG Version: 6.00 Build 0)  -->
<!DOCTYPE svg PUBLIC "-//W3C//DTD SVG 1.1//EN" "http://www.w3.org/Graphics/SVG/1.1/DTD/svg11.dtd">
<svg version="1.1" xmlns="http://www.w3.org/2000/svg" xmlns:xlink="http://www.w3.org/1999/xlink" x="0px" y="0px" width="671.1px"
	 height="686.1px" viewBox="0 0 671.1 686.1" style="enable-background:new 0 0 671.1 686.1;" xml:space="preserve">
<style type="text/css">
	.st0{enable-background:new    ;}
	.st1{fill:#C69569;}
	.st2{fill:#FFFFFF;}
</style>
<g id="Ellipse_1_1_" class="st0">
	<g id="Ellipse_1">
		<g>
			<circle class="st1" cx="335.8" cy="349.9" r="303.6"/>
		</g>
	</g>
</g>
<g id="Layer_2_xA0_Image_1_">
	<path class="st2" d="M254.1,132.6c0,0-76.5-1.5-81,87s0,213,0,213s3,99,100.5,130.5c0,0,55.5,7.5,174,3c0,0,75-1.5,72-102
		c0,0-6-51-75-69c0,0,72-9,75-88.5c0,0,9-72-82.5-82.5l-91.5,1.5C345.6,225.6,351.6,129.6,254.1,132.6z"/>
	<path class="st1" d="M239.9,174.7c-15.2,7.7-26.3,23.7-26.3,43.4c0,31.5,0,207,0,207s-1.5,76.5,64.5,97.5c0,0,25.5,6,102,4.5
		c0,0,64,0,64.5,0c29.5,0,40.9-43.4,30.2-65.8c-14.5-30.3-69.2-27.1-96.2-25.7h-72v-79.5c0,0,134.2,1.5,135,1.5
		c42,0.5,50-74.6,15-89.1c-10.2-4.2-154.5-4-154.5-3.9c1.5-27.9,11.6-66.2-14.5-85.5C272.1,167.6,254.2,167.5,239.9,174.7z"/>
</g>
</svg>
