<?xml version="1.0" encoding="utf-8"?>
<!-- Generator: Adobe Illustrator 18.1.1, SVG Export Plug-In . SVG Version: 6.00 Build 0)  -->
<!DOCTYPE svg PUBLIC "-//W3C//DTD SVG 1.1//EN" "http://www.w3.org/Graphics/SVG/1.1/DTD/svg11.dtd">
<svg version="1.1" id="Layer_1" xmlns="http://www.w3.org/2000/svg" xmlns:xlink="http://www.w3.org/1999/xlink" x="0px" y="0px"
	 width="356px" height="181px" viewBox="0 0 356 181" style="enable-background:new 0 0 356 181;" xml:space="preserve">
<path d="M117.5,62.5c0,0,5-14-18.5-22V43l-12-8v3l-10.5-6.5V35L66,28l-1.5,3l-11-7.5c0,0-1.5,8.5,1.5,13l-7,2l7.5,8.5L52,48
	l12.5,7.5l-3,2l15,5l-3,1.5L90,68l-3,2c0,0,20.5,7.5,26.5-2c0,0,123,45,161,51.5l6-8.5C280.5,111,210.5,98,117.5,62.5z"/>
<path d="M188.1,72.5c0,0,8.5-12.2-12-26.1l-0.7,2.4L166,37.8l-0.8,2.9l-8.4-9.1l-0.9,3.4l-8.3-9.5l-2.2,2.5l-8.6-10.2
	c0,0-3.7,7.8-2,12.9l-7.3,0.1l5,10.2l-3.6,0l10.1,10.6l-3.4,1.1l13.1,8.8l-3.3,0.6l14.8,8.2l-3.4,1.1c0,0,17.8,12.7,26.1,5.1
	c0,0,106.6,76.1,141.5,92.4l8-6.6C332.3,162.5,268.3,131.4,188.1,72.5z"/>
<path d="M135.9,110c0,0,0.8,14.8-24,15.8l0.7-2.4l-13.8,4.3l0.9-2.9L87.7,128l1-3.4l-12.1,3.7l-0.6-3.3l-12.7,4.1c0,0,1-8.6,5.1-12
	l-6.1-3.9l9.6-6l-3.1-2l14.1-3.6l-2.3-2.8l15.8-0.5L94.1,96l17,0.9l-2.3-2.8c0,0,21.8-1.4,24.8,9.5c0,0,130.7-8.2,169-3.6l3.3,9.9
	C305.9,109.8,235.1,102.4,135.9,110z"/>
<path d="M83.5,89.1c0,0-1.3,14.8-26,12.2l1.1-2.3l-14.3,2.2l1.3-2.7L33.3,100l1.5-3.2l-12.5,1.9l-0.1-3.4L9.1,97.6
	c0,0,2.2-8.3,6.8-11.2l-5.5-4.8l10.4-4.6L18,74.8l14.5-1.6l-1.9-3.1l15.7,1.8l-2.1-2.6l16.7,3.3L59,69.5c0,0,21.8,1.8,23.2,13
	c0,0,130.5,10.9,167.7,20.9l1.9,10.2C251.8,113.6,182.9,96,83.5,89.1z"/>
</svg>
