<svg xmlns="http://www.w3.org/2000/svg" width="356" height="181" viewBox="0 0 356 181"><path d="M117.5 62.5s5-14-18.5-22v2.5l-12-8v3l-10.5-6.5v3.5l-10.5-7-1.5 3-11-7.5s-1.5 8.5 1.5 13l-7 2 7.5 8.5-3.5 1 12.5 7.5-3 2 15 5-3 1.5 16.5 4-3 2s20.5 7.5 26.5-2c0 0 123 45 161 51.5l6-8.5s-70-13-163-48.5zm70.6 10s8.5-12.2-12-26.1l-.7 2.4-9.4-11-.8 2.9-8.4-9.1-.9 3.4-8.3-9.5-2.2 2.5-8.6-10.2s-3.7 7.8-2 12.9l-7.3.1 5 10.2h-3.6l10.1 10.6-3.4 1.1 13.1 8.8-3.3.6 14.8 8.2-3.4 1.1s17.8 12.7 26.1 5.1c0 0 106.6 76.1 141.5 92.4l8-6.6c-.1.2-64.1-30.9-144.3-89.8zm-52.2 37.5s.8 14.8-24 15.8l.7-2.4-13.8 4.3.9-2.9-12 3.2 1-3.4-12.1 3.7-.6-3.3-12.7 4.1s1-8.6 5.1-12l-6.1-3.9 9.6-6-3.1-2 14.1-3.6-2.3-2.8 15.8-.5-2.3-2.3 17 .9-2.3-2.8s21.8-1.4 24.8 9.5c0 0 130.7-8.2 169-3.6l3.3 9.9c0-.1-70.8-7.5-170 .1zm-52.4-20.9s-1.3 14.8-26 12.2l1.1-2.3-14.3 2.2 1.3-2.7-12.3 1.5 1.5-3.2-12.5 1.9-.1-3.4-13.1 2.3s2.2-8.3 6.8-11.2l-5.5-4.8 10.4-4.6-2.8-2.2 14.5-1.6-1.9-3.1 15.7 1.8-2.1-2.6 16.7 3.3-1.9-3.1s21.8 1.8 23.2 13c0 0 130.5 10.9 167.7 20.9l1.9 10.2s-68.9-17.6-168.3-24.5z"/></svg>