<svg xmlns="http://www.w3.org/2000/svg" width="356" height="181" viewBox="0 0 356 181"><path d="M188.5 86.1s-29.3 94.7-136 58.5l-8-8s103.6 49.4 141.1-55.6l2.9 5.1zM228.8 87.7s-63.2 96.6-179.9 38.7l-3.2-5.8s110.9 62.3 182.2-39.1l.9 6.2zM208.5 135.9s-83.6 45.4-154.9-30.1l-1.1-9.5s67.1 84.5 159 33.8l-3 5.8zM144.7 71.3"/><ellipse transform="matrix(.233 .972 -.972 .233 214.358 -119.287)" cx="182.8" cy="76.3" rx="10.7" ry="4.1"/><path d="M182.4 74.9s-.5-1-1.1-2.5c-.3-.8-.6-1.7-.9-2.7-.3-1-.6-2-.9-3.1-.6-2.1-1-4.3-1.3-5.9-.3-1.6-.3-2.7-.3-2.7s.5 1 1.1 2.5c.6 1.5 1.2 3.6 1.8 5.7.3 1.1.5 2.1.7 3.1.2 1 .4 1.9.5 2.8.4 1.7.4 2.8.4 2.8z"/><ellipse transform="matrix(.233 .972 -.972 .233 205.791 -135.468)" cx="188.8" cy="62.8" rx="10.7" ry="4.1"/><path d="M188.4 61.4s-.5-1-1.1-2.5c-.3-.8-.6-1.7-.9-2.7-.3-1-.6-2-.9-3.1-.6-2.1-1-4.3-1.3-5.9-.3-1.6-.3-2.7-.3-2.7s.5 1 1.1 2.5c.6 1.5 1.2 3.6 1.8 5.7.3 1.1.5 2.1.7 3.1.2 1 .4 1.9.5 2.8.3 1.7.4 2.8.4 2.8z"/><ellipse transform="matrix(.233 .972 -.972 .233 197.224 -151.649)" cx="194.8" cy="49.3" rx="10.7" ry="4.1"/><path d="M194.4 47.9s-.5-1-1.1-2.5c-.3-.8-.6-1.7-.9-2.7-.3-1-.6-2-.9-3.1-.6-2.1-1-4.3-1.3-5.9-.3-1.6-.3-2.7-.3-2.7s.5 1 1.1 2.5c.6 1.5 1.2 3.6 1.8 5.7.3 1.1.5 2.1.7 3.1.2 1 .4 1.9.5 2.8.3 1.7.4 2.8.4 2.8z"/><ellipse transform="matrix(.233 .972 -.972 .233 188.656 -167.83)" cx="200.8" cy="35.7" rx="10.7" ry="4.1"/><path d="M200.4 34.4s-.5-1-1.1-2.5c-.3-.8-.6-1.7-.9-2.7-.3-1-.6-2-.9-3.1-.6-2.1-1-4.3-1.3-5.9-.3-1.6-.3-2.7-.3-2.7s.5 1 1.1 2.5c.6 1.5 1.2 3.6 1.8 5.7.3 1.1.5 2.1.7 3.1.2 1 .4 1.9.5 2.8.3 1.6.4 2.8.4 2.8z"/><ellipse transform="matrix(-.876 .482 -.482 -.876 404.271 59.117)" cx="194.5" cy="81.5" rx="10.7" ry="4.1"/><path d="M195.8 80.8s.9-.7 2.3-1.6c.7-.5 1.5-1 2.4-1.5.9-.5 1.9-1 2.8-1.6 1.9-1 3.9-1.9 5.5-2.5 1.5-.6 2.6-.9 2.6-.9s-.9.7-2.3 1.6c-1.4.9-3.3 2-5.2 3-1 .5-2 1-2.9 1.4-.9.4-1.8.8-2.6 1.1-1.5.7-2.6 1-2.6 1z"/><ellipse transform="matrix(-.876 .482 -.482 -.876 408.969 30.862)" cx="200.5" cy="68" rx="10.7" ry="4.1"/><path d="M201.8 67.3s.9-.7 2.3-1.6c.7-.5 1.5-1 2.4-1.5.9-.5 1.9-1 2.8-1.6 1.9-1 3.9-1.9 5.5-2.5 1.5-.6 2.6-.9 2.6-.9s-.9.7-2.3 1.6c-1.4.9-3.3 2-5.2 3-1 .5-2 1-2.9 1.4-.9.4-1.8.8-2.6 1.1-1.5.7-2.6 1-2.6 1z"/><ellipse transform="matrix(-.876 .482 -.482 -.876 413.668 2.607)" cx="206.5" cy="54.4" rx="10.7" ry="4.1"/><path d="M207.8 53.8s.9-.7 2.3-1.6c.7-.5 1.5-1 2.4-1.5.9-.5 1.9-1 2.8-1.6 1.9-1 3.9-1.9 5.5-2.5 1.5-.6 2.6-.9 2.6-.9s-.9.7-2.3 1.6c-1.4.9-3.3 2-5.2 3-1 .5-2 1-2.9 1.4-.9.4-1.8.8-2.6 1.1-1.5.7-2.6 1-2.6 1z"/><ellipse transform="matrix(-.876 .482 -.482 -.876 418.367 -25.648)" cx="212.5" cy="40.9" rx="10.7" ry="4.1"/><path d="M213.8 40.3s.9-.7 2.3-1.6c.7-.5 1.5-1 2.4-1.5.9-.5 1.9-1 2.8-1.6 1.9-1 3.9-1.9 5.5-2.5 1.5-.6 2.6-.9 2.6-.9s-.9.7-2.3 1.6c-1.4.9-3.3 2-5.2 3-1 .5-2 1-2.9 1.4-.9.4-1.8.8-2.6 1.1-1.6.7-2.6 1-2.6 1z"/><ellipse transform="matrix(-.379 .925 -.925 -.379 315.458 -160.67)" cx="211.7" cy="25.6" rx="10.7" ry="4.1"/><path d="M212.1 24.2s.2-1.1.6-2.7c.2-.8.5-1.7.8-2.7.3-1 .7-2 1.1-3 .8-2 1.7-4.1 2.4-5.5.7-1.5 1.3-2.4 1.3-2.4s-.2 1.1-.6 2.7c-.4 1.6-1.1 3.7-1.9 5.7l-1.2 3c-.4.9-.8 1.8-1.2 2.5-.7 1.5-1.3 2.4-1.3 2.4zM213.9 22.8s-11.6 34.1-25.5 60.3 16.7-50.9 25.5-60.3z"/><ellipse transform="matrix(.111 .994 -.994 .111 275.25 -154.305)" cx="223.9" cy="76.7" rx="10.7" ry="4.1"/><path d="M223.6 75.3s-.4-1.1-.7-2.7c-.2-.8-.4-1.7-.6-2.8-.2-1-.3-2.1-.5-3.2-.3-2.2-.5-4.4-.5-6-.1-1.6 0-2.8 0-2.8s.4 1.1.7 2.7c.4 1.6.8 3.8 1.1 5.9.1 1.1.3 2.2.4 3.2.1 1 .1 2 .2 2.8 0 1.7-.1 2.9-.1 2.9z"/><ellipse transform="matrix(.111 .994 -.994 .111 269.419 -173.141)" cx="231.5" cy="64" rx="10.7" ry="4.1"/><path d="M231.2 62.6s-.4-1.1-.7-2.7c-.2-.8-.4-1.7-.6-2.8-.2-1-.3-2.1-.5-3.2-.3-2.2-.5-4.4-.5-6-.1-1.6 0-2.8 0-2.8s.4 1.1.7 2.7c.4 1.6.8 3.8 1.1 5.9.1 1.1.3 2.2.4 3.2.1 1 .1 2 .2 2.8 0 1.8-.1 2.9-.1 2.9z"/><ellipse transform="matrix(.111 .994 -.994 .111 263.588 -191.978)" cx="239.1" cy="51.3" rx="10.7" ry="4.1"/><path d="M238.9 49.9s-.4-1.1-.7-2.7c-.2-.8-.4-1.7-.6-2.8-.2-1-.3-2.1-.5-3.2-.3-2.2-.5-4.4-.5-6-.1-1.6 0-2.8 0-2.8s.4 1.1.7 2.7c.4 1.6.8 3.8 1.1 5.9.1 1.1.3 2.2.4 3.2.1 1 .1 2 .2 2.8-.1 1.8-.1 2.9-.1 2.9z"/><ellipse transform="matrix(.111 .994 -.994 .111 257.758 -210.815)" cx="246.7" cy="38.6" rx="10.7" ry="4.1"/><path d="M246.5 37.2s-.4-1.1-.7-2.7c-.2-.8-.4-1.7-.6-2.8-.2-1-.3-2.1-.5-3.2-.3-2.2-.5-4.4-.5-6-.1-1.6 0-2.8 0-2.8s.4 1.1.7 2.7c.4 1.6.8 3.8 1.1 5.9.1 1.1.3 2.2.4 3.2.1 1 .1 2 .2 2.8-.1 1.8-.1 2.9-.1 2.9z"/><ellipse transform="matrix(-.929 .369 -.369 -.929 483.82 73.89)" cx="234.8" cy="83.3" rx="10.7" ry="4.1"/><path d="M236.2 82.8s.9-.6 2.4-1.3c.7-.4 1.6-.8 2.6-1.2.9-.4 2-.8 3-1.2 2.1-.8 4.1-1.4 5.7-1.8 1.6-.4 2.7-.6 2.7-.6s-.9.6-2.4 1.3c-1.5.7-3.5 1.6-5.5 2.4-1 .4-2.1.7-3 1-1 .3-1.9.6-2.7.8-1.7.4-2.8.6-2.8.6z"/><ellipse transform="matrix(-.929 .369 -.369 -.929 493.821 46.621)" cx="242.4" cy="70.6" rx="10.7" ry="4.1"/><path d="M243.8 70.1s.9-.6 2.4-1.3c.7-.4 1.6-.8 2.6-1.2.9-.4 2-.8 3-1.2 2.1-.8 4.1-1.4 5.7-1.8 1.6-.4 2.7-.6 2.7-.6s-.9.6-2.4 1.3c-1.5.7-3.5 1.6-5.5 2.4-1 .4-2.1.7-3 1-1 .3-1.9.6-2.7.8-1.7.4-2.8.6-2.8.6z"/><ellipse transform="matrix(-.929 .369 -.369 -.929 503.823 19.353)" cx="250.1" cy="57.9" rx="10.7" ry="4.1"/><path d="M251.4 57.4s.9-.6 2.4-1.3c.7-.4 1.6-.8 2.6-1.2.9-.4 2-.8 3-1.2 2.1-.8 4.1-1.4 5.7-1.8 1.6-.4 2.7-.6 2.7-.6s-.9.6-2.4 1.3c-1.5.7-3.5 1.6-5.5 2.4-1 .4-2.1.7-3 1-1 .3-1.9.6-2.7.8-1.7.5-2.8.6-2.8.6z"/><ellipse transform="matrix(-.929 .369 -.369 -.929 513.825 -7.916)" cx="257.7" cy="45.2" rx="10.7" ry="4.1"/><path d="M259 44.8s.9-.6 2.4-1.3c.7-.4 1.6-.8 2.6-1.2.9-.4 2-.8 3-1.2 2.1-.8 4.1-1.4 5.7-1.8 1.6-.4 2.7-.6 2.7-.6s-.9.6-2.4 1.3c-1.5.7-3.5 1.6-5.5 2.4-1 .4-2.1.7-3 1-1 .3-1.9.6-2.7.8-1.7.4-2.8.6-2.8.6z"/><ellipse transform="matrix(-.491 .871 -.871 -.491 411.782 -180.913)" cx="258.8" cy="29.9" rx="10.7" ry="4.1"/><path d="M259.4 28.6s.3-1.1 1-2.6c.3-.8.7-1.6 1.1-2.6.4-.9.9-1.9 1.4-2.9 1-1.9 2.2-3.8 3.1-5.2.9-1.4 1.6-2.2 1.6-2.2s-.3 1.1-1 2.6c-.6 1.5-1.6 3.5-2.6 5.4-.5 1-1.1 1.9-1.6 2.8-.5.9-1 1.7-1.5 2.4-.8 1.5-1.5 2.3-1.5 2.3zM261.3 27.4s-15.8 32.4-32.8 56.7 22.9-48.4 32.8-56.7z"/><ellipse transform="matrix(-.412 .911 -.911 -.412 411.064 -16.496)" cx="210.9" cy="124.4" rx="10.7" ry="4.1"/><path d="M211.4 123s.2-1.1.7-2.7c.2-.8.6-1.7.9-2.7.3-1 .8-2 1.2-3 .9-2 1.8-4 2.6-5.4.8-1.4 1.4-2.4 1.4-2.4s-.2 1.1-.7 2.7c-.5 1.6-1.2 3.6-2.1 5.7-.4 1-.9 2-1.3 2.9-.4.9-.9 1.8-1.3 2.5-.8 1.5-1.4 2.4-1.4 2.4z"/><ellipse transform="matrix(-.412 .911 -.911 -.412 423.056 -38.26)" cx="223.9" cy="117.3" rx="10.7" ry="4.1"/><path d="M224.4 116s.2-1.1.7-2.7c.2-.8.6-1.7.9-2.7.3-1 .8-2 1.2-3 .9-2 1.8-4 2.6-5.4.8-1.4 1.4-2.4 1.4-2.4s-.2 1.1-.7 2.7c-.5 1.6-1.2 3.6-2.1 5.7-.4 1-.9 2-1.3 2.9-.4.9-.9 1.8-1.3 2.5-.8 1.5-1.4 2.4-1.4 2.4z"/><ellipse transform="matrix(-.412 .911 -.911 -.412 435.048 -60.025)" cx="236.9" cy="110.3" rx="10.7" ry="4.1"/><path d="M237.4 109s.2-1.1.7-2.7c.2-.8.6-1.7.9-2.7.3-1 .8-2 1.2-3 .9-2 1.8-4 2.6-5.4.8-1.4 1.4-2.4 1.4-2.4s-.2 1.1-.7 2.7c-.5 1.6-1.2 3.6-2.1 5.7-.4 1-.9 2-1.3 2.9-.4.9-.9 1.8-1.3 2.5-.7 1.5-1.4 2.4-1.4 2.4z"/><ellipse transform="matrix(-.412 .911 -.911 -.412 447.041 -81.789)" cx="249.9" cy="103.3" rx="10.7" ry="4.1"/><path d="M250.4 102s.2-1.1.7-2.7c.2-.8.6-1.7.9-2.7.3-1 .8-2 1.2-3 .9-2 1.8-4 2.6-5.4.8-1.4 1.4-2.4 1.4-2.4s-.2 1.1-.7 2.7c-.5 1.6-1.2 3.6-2.1 5.7-.4 1-.9 2-1.3 2.9-.4.9-.9 1.8-1.3 2.5-.7 1.5-1.4 2.4-1.4 2.4z"/><ellipse transform="matrix(-.988 -.157 .157 -.988 409.891 303.613)" cx="216.9" cy="135.6" rx="10.7" ry="4.1"/><path d="M218.3 135.9s1.1 0 2.8.1c.8.1 1.8.2 2.8.3 1 .1 2.1.3 3.2.5 2.2.4 4.3.9 5.9 1.4 1.6.5 2.6.9 2.6.9s-1.1 0-2.8-.1c-1.6-.1-3.8-.4-6-.8-1.1-.2-2.1-.4-3.1-.7-1-.2-1.9-.5-2.7-.7-1.6-.5-2.7-.9-2.7-.9z"/><ellipse transform="matrix(-.988 -.157 .157 -.988 436.864 291.715)" cx="229.9" cy="128.6" rx="10.7" ry="4.1"/><path d="M231.3 128.9s1.1 0 2.8.1c.8.1 1.8.2 2.8.3 1 .1 2.1.3 3.2.5 2.2.4 4.3.9 5.9 1.4 1.6.5 2.6.9 2.6.9s-1.1 0-2.8-.1c-1.6-.1-3.8-.4-6-.8-1.1-.2-2.1-.4-3.1-.7-1-.2-1.9-.5-2.7-.7-1.6-.5-2.7-.9-2.7-.9z"/><ellipse transform="matrix(-.988 -.157 .157 -.988 463.838 279.817)" cx="243" cy="121.6" rx="10.7" ry="4.1"/><path d="M244.4 121.9s1.1 0 2.8.1c.8.1 1.8.2 2.8.3 1 .1 2.1.3 3.2.5 2.2.4 4.3.9 5.9 1.4 1.6.5 2.6.9 2.6.9s-1.1 0-2.8-.1c-1.6-.1-3.8-.4-6-.8-1.1-.2-2.1-.4-3.1-.7-1-.2-1.9-.5-2.7-.7-1.7-.5-2.7-.9-2.7-.9z"/><ellipse transform="matrix(-.988 -.157 .157 -.988 490.811 267.919)" cx="256" cy="114.6" rx="10.7" ry="4.1"/><path d="M257.4 114.9s1.1 0 2.8.1c.8.1 1.8.2 2.8.3 1 .1 2.1.3 3.2.5 2.2.4 4.3.9 5.9 1.4 1.6.5 2.6.9 2.6.9s-1.1 0-2.8-.1c-1.6-.1-3.8-.4-6-.8-1.1-.2-2.1-.4-3.1-.7-1-.2-1.9-.5-2.7-.7-1.7-.5-2.7-.9-2.7-.9z"/><ellipse transform="matrix(-.867 .499 -.499 -.867 545.082 58.318)" cx="264.8" cy="102" rx="10.7" ry="4.1"/><path d="M266 101.2s.8-.8 2.1-1.7c.7-.5 1.4-1.1 2.3-1.6.8-.6 1.8-1.2 2.7-1.7 1.9-1.1 3.8-2.2 5.3-2.9 1.5-.7 2.5-1.1 2.5-1.1s-.8.8-2.1 1.7c-1.3 1-3.1 2.2-5 3.4-.9.6-1.9 1.1-2.8 1.6l-2.5 1.3-2.5 1zM268.2 101.1s-30.1 19.8-57.1 32 44.4-29.9 57.1-32z"/></svg>