<?xml version="1.0" encoding="utf-8"?>
<!-- Generator: Adobe Illustrator 18.1.1, SVG Export Plug-In . SVG Version: 6.00 Build 0)  -->
<!DOCTYPE svg PUBLIC "-//W3C//DTD SVG 1.1//EN" "http://www.w3.org/Graphics/SVG/1.1/DTD/svg11.dtd">
<svg version="1.1" id="Layer_1" xmlns="http://www.w3.org/2000/svg" xmlns:xlink="http://www.w3.org/1999/xlink" x="0px" y="0px"
	 width="356px" height="181px" viewBox="0 0 356 181" style="enable-background:new 0 0 356 181;" xml:space="preserve">
<path d="M136.9,86.1c0,0,29.3,94.7,136,58.5l8-8c0,0-103.6,49.4-141.1-55.6L136.9,86.1z"/>
<path d="M96.7,87.7c0,0,63.2,96.6,179.9,38.7l3.2-5.8c0,0-110.9,62.3-182.2-39.1L96.7,87.7z"/>
<path d="M116.9,135.9c0,0,83.6,45.4,154.9-30.1l1.1-9.5c0,0-67.1,84.5-159,33.8L116.9,135.9z"/>
<path d="M180.8,71.3"/>
<g>
	<ellipse transform="matrix(-0.2334 0.9724 -0.9724 -0.2334 250.1025 -44.5838)" cx="142.6" cy="76.3" rx="10.7" ry="4.1"/>
	<g>
		<path d="M143,74.9c0,0,0.1-1.1,0.3-2.7c0.1-0.8,0.3-1.8,0.5-2.8c0.2-1,0.5-2.1,0.7-3.1c0.6-2.1,1.2-4.2,1.8-5.7
			c0.6-1.5,1.1-2.5,1.1-2.5s-0.1,1.1-0.3,2.7c-0.3,1.6-0.7,3.8-1.3,5.9c-0.3,1.1-0.6,2.1-0.9,3.1c-0.3,1-0.6,1.9-0.9,2.7
			C143.5,73.9,143,74.9,143,74.9z"/>
	</g>
	<ellipse transform="matrix(-0.2334 0.9724 -0.9724 -0.2334 229.5789 -55.4505)" cx="136.6" cy="62.8" rx="10.7" ry="4.1"/>
	<g>
		<path d="M137,61.4c0,0,0.1-1.1,0.3-2.7c0.1-0.8,0.3-1.8,0.5-2.8c0.2-1,0.5-2.1,0.7-3.1c0.6-2.1,1.2-4.2,1.8-5.7
			c0.6-1.5,1.1-2.5,1.1-2.5s-0.1,1.1-0.3,2.7c-0.3,1.6-0.7,3.8-1.3,5.9c-0.3,1.1-0.6,2.1-0.9,3.1c-0.3,1-0.6,1.9-0.9,2.7
			C137.5,60.4,137,61.4,137,61.4z"/>
	</g>
	<ellipse transform="matrix(-0.2334 0.9724 -0.9724 -0.2334 209.0553 -66.3173)" cx="130.7" cy="49.3" rx="10.7" ry="4.1"/>
	<g>
		<path d="M131.1,47.9c0,0,0.1-1.1,0.3-2.7c0.1-0.8,0.3-1.8,0.5-2.8c0.2-1,0.5-2.1,0.7-3.1c0.6-2.1,1.2-4.2,1.8-5.7
			c0.6-1.5,1.1-2.5,1.1-2.5s-0.1,1.1-0.3,2.7c-0.3,1.6-0.7,3.8-1.3,5.9c-0.3,1.1-0.6,2.1-0.9,3.1c-0.3,1-0.6,1.9-0.9,2.7
			C131.6,46.9,131.1,47.9,131.1,47.9z"/>
	</g>
	<ellipse transform="matrix(-0.2334 0.9724 -0.9724 -0.2334 188.5317 -77.184)" cx="124.7" cy="35.7" rx="10.7" ry="4.1"/>
	<g>
		<path d="M125.1,34.4c0,0,0.1-1.1,0.3-2.7c0.1-0.8,0.3-1.8,0.5-2.8c0.2-1,0.5-2.1,0.7-3.1c0.6-2.1,1.2-4.2,1.8-5.7
			c0.6-1.5,1.1-2.5,1.1-2.5s-0.1,1.1-0.3,2.7c-0.3,1.6-0.7,3.8-1.3,5.9c-0.3,1.1-0.6,2.1-0.9,3.1c-0.3,1-0.6,1.9-0.9,2.7
			C125.6,33.3,125.1,34.4,125.1,34.4z"/>
	</g>
	<ellipse transform="matrix(0.8762 0.4819 -0.4819 0.8762 55.4704 -53.0035)" cx="130.9" cy="81.5" rx="10.7" ry="4.1"/>
	<g>
		<path d="M129.6,80.8c0,0-1.1-0.3-2.6-0.9c-0.8-0.3-1.7-0.7-2.6-1.1c-0.9-0.4-1.9-0.9-2.9-1.4c-1.9-1-3.8-2.1-5.2-3
			c-1.4-0.9-2.3-1.6-2.3-1.6s1.1,0.3,2.6,0.9c1.5,0.6,3.5,1.5,5.5,2.5c1,0.5,1.9,1,2.8,1.6c0.9,0.5,1.7,1,2.4,1.5
			C128.8,80.1,129.6,80.8,129.6,80.8z"/>
	</g>
	<ellipse transform="matrix(0.8762 0.4819 -0.4819 0.8762 48.213 -51.7966)" cx="124.9" cy="68" rx="10.7" ry="4.1"/>
	<g>
		<path d="M123.6,67.3c0,0-1.1-0.3-2.6-0.9c-0.8-0.3-1.7-0.7-2.6-1.1c-0.9-0.4-1.9-0.9-2.9-1.4c-1.9-1-3.8-2.1-5.2-3
			c-1.4-0.9-2.3-1.6-2.3-1.6s1.1,0.3,2.6,0.9c1.5,0.6,3.5,1.5,5.5,2.5c1,0.5,1.9,1,2.8,1.6c0.9,0.5,1.7,1,2.4,1.5
			C122.8,66.6,123.6,67.3,123.6,67.3z"/>
	</g>
	<ellipse transform="matrix(0.8762 0.4819 -0.4819 0.8762 40.9556 -50.5897)" cx="119" cy="54.4" rx="10.7" ry="4.1"/>
	<g>
		<path d="M117.7,53.8c0,0-1.1-0.3-2.6-0.9c-0.8-0.3-1.7-0.7-2.6-1.1c-0.9-0.4-1.9-0.9-2.9-1.4c-1.9-1-3.8-2.1-5.2-3
			c-1.4-0.9-2.3-1.6-2.3-1.6s1.1,0.3,2.6,0.9c1.5,0.6,3.5,1.5,5.5,2.5c1,0.5,1.9,1,2.8,1.6c0.9,0.5,1.7,1,2.4,1.5
			C116.8,53.1,117.7,53.8,117.7,53.8z"/>
	</g>
	<ellipse transform="matrix(0.8762 0.4819 -0.4819 0.8762 33.6982 -49.3827)" cx="113" cy="40.9" rx="10.7" ry="4.1"/>
	<g>
		<path d="M111.7,40.3c0,0-1.1-0.3-2.6-0.9c-0.8-0.3-1.7-0.7-2.6-1.1c-0.9-0.4-1.9-0.9-2.9-1.4c-1.9-1-3.8-2.1-5.2-3
			c-1.4-0.9-2.3-1.6-2.3-1.6s1.1,0.3,2.6,0.9c1.5,0.6,3.5,1.5,5.5,2.5c1,0.5,1.9,1,2.8,1.6c0.9,0.5,1.7,1,2.4,1.5
			C110.8,39.6,111.7,40.3,111.7,40.3z"/>
	</g>
	<ellipse transform="matrix(0.3787 0.9255 -0.9255 0.3787 94.3547 -89.4449)" cx="113.8" cy="25.6" rx="10.7" ry="4.1"/>
	<g>
		<path d="M113.3,24.2c0,0-0.6-0.9-1.3-2.4c-0.4-0.7-0.8-1.6-1.2-2.5c-0.4-0.9-0.8-2-1.2-3c-0.8-2-1.5-4.1-1.9-5.7
			c-0.4-1.6-0.6-2.7-0.6-2.7s0.6,0.9,1.3,2.4c0.7,1.5,1.6,3.5,2.4,5.5c0.4,1,0.8,2.1,1.1,3c0.3,1,0.6,1.9,0.8,2.7
			C113.1,23.1,113.3,24.2,113.3,24.2z"/>
	</g>
	<path d="M111.6,22.8c0,0,11.6,34.1,25.5,60.3S120.4,32.2,111.6,22.8z"/>
</g>
<g>
	<ellipse transform="matrix(-0.1108 0.9938 -0.9938 -0.1108 189.052 -15.8117)" cx="101.6" cy="76.7" rx="10.7" ry="4.1"/>
	<g>
		<path d="M101.8,75.3c0,0-0.1-1.1,0-2.8c0-0.8,0.1-1.8,0.2-2.8c0.1-1,0.2-2.1,0.4-3.2c0.3-2.2,0.7-4.3,1.1-5.9
			c0.4-1.6,0.7-2.7,0.7-2.7s0.1,1.1,0,2.8c-0.1,1.7-0.2,3.8-0.5,6c-0.2,1.1-0.3,2.2-0.5,3.2c-0.2,1-0.4,2-0.6,2.8
			C102.2,74.2,101.8,75.3,101.8,75.3z"/>
	</g>
	<ellipse transform="matrix(-0.1108 0.9938 -0.9938 -0.1108 167.9987 -22.3286)" cx="94" cy="64" rx="10.7" ry="4.1"/>
	<g>
		<path d="M94.2,62.6c0,0-0.1-1.1,0-2.8c0-0.8,0.1-1.8,0.2-2.8c0.1-1,0.2-2.1,0.4-3.2c0.3-2.2,0.7-4.3,1.1-5.9
			c0.4-1.6,0.7-2.7,0.7-2.7s0.1,1.1,0,2.8c-0.1,1.7-0.2,3.8-0.5,6c-0.2,1.1-0.3,2.2-0.5,3.2c-0.2,1-0.4,2-0.6,2.8
			C94.6,61.5,94.2,62.6,94.2,62.6z"/>
	</g>
	<ellipse transform="matrix(-0.1108 0.9938 -0.9938 -0.1108 146.9454 -28.8456)" cx="86.4" cy="51.3" rx="10.7" ry="4.1"/>
	<g>
		<path d="M86.6,49.9c0,0-0.1-1.1,0-2.8c0-0.8,0.1-1.8,0.2-2.8c0.1-1,0.2-2.1,0.4-3.2c0.3-2.2,0.7-4.3,1.1-5.9
			c0.4-1.6,0.7-2.7,0.7-2.7s0.1,1.1,0,2.8c-0.1,1.7-0.2,3.8-0.5,6c-0.2,1.1-0.3,2.2-0.5,3.2c-0.2,1-0.4,2-0.6,2.8
			C87,48.8,86.6,49.9,86.6,49.9z"/>
	</g>
	<ellipse transform="matrix(-0.1108 0.9938 -0.9938 -0.1108 125.8921 -35.3625)" cx="78.8" cy="38.6" rx="10.7" ry="4.1"/>
	<g>
		<path d="M79,37.2c0,0-0.1-1.1,0-2.8c0-0.8,0.1-1.8,0.2-2.8c0.1-1,0.2-2.1,0.4-3.2c0.3-2.2,0.7-4.3,1.1-5.9
			c0.4-1.6,0.7-2.7,0.7-2.7s0.1,1.1,0,2.8c-0.1,1.7-0.2,3.8-0.5,6c-0.2,1.1-0.3,2.2-0.5,3.2c-0.2,1-0.4,2-0.6,2.8
			C79.4,36.2,79,37.2,79,37.2z"/>
	</g>
	<ellipse transform="matrix(0.9293 0.3694 -0.3694 0.9293 37.1629 -27.5844)" cx="90.6" cy="83.3" rx="10.7" ry="4.1"/>
	<g>
		<path d="M89.3,82.8c0,0-1.1-0.2-2.7-0.6c-0.8-0.2-1.7-0.5-2.7-0.8c-1-0.3-2-0.7-3-1c-2.1-0.8-4.1-1.6-5.5-2.4
			c-1.5-0.7-2.4-1.3-2.4-1.3s1.1,0.2,2.7,0.6c1.6,0.4,3.7,1.1,5.7,1.8c1,0.4,2,0.8,3,1.2c0.9,0.4,1.8,0.8,2.6,1.2
			C88.3,82.2,89.3,82.8,89.3,82.8z"/>
	</g>
	<ellipse transform="matrix(0.9293 0.3694 -0.3694 0.9293 31.9422 -25.6695)" cx="83" cy="70.6" rx="10.7" ry="4.1"/>
	<g>
		<path d="M81.7,70.1c0,0-1.1-0.2-2.7-0.6c-0.8-0.2-1.7-0.5-2.7-0.8c-1-0.3-2-0.7-3-1c-2.1-0.8-4.1-1.6-5.5-2.4
			c-1.5-0.7-2.4-1.3-2.4-1.3s1.1,0.2,2.7,0.6c1.6,0.4,3.7,1.1,5.7,1.8c1,0.4,2,0.8,3,1.2c0.9,0.4,1.8,0.8,2.6,1.2
			C80.7,69.5,81.7,70.1,81.7,70.1z"/>
	</g>
	<ellipse transform="matrix(0.9293 0.3694 -0.3694 0.9293 26.7214 -23.7546)" cx="75.4" cy="57.9" rx="10.7" ry="4.1"/>
	<g>
		<path d="M74,57.4c0,0-1.1-0.2-2.7-0.6c-0.8-0.2-1.7-0.5-2.7-0.8c-1-0.3-2-0.7-3-1c-2.1-0.8-4.1-1.6-5.5-2.4
			c-1.5-0.7-2.4-1.3-2.4-1.3s1.1,0.2,2.7,0.6c1.6,0.4,3.7,1.1,5.7,1.8c1,0.4,2,0.8,3,1.2c0.9,0.4,1.8,0.8,2.6,1.2
			C73.1,56.8,74,57.4,74,57.4z"/>
	</g>
	<ellipse transform="matrix(0.9293 0.3694 -0.3694 0.9293 21.5006 -21.8397)" cx="67.8" cy="45.2" rx="10.7" ry="4.1"/>
	<g>
		<path d="M66.4,44.8c0,0-1.1-0.2-2.7-0.6C62.9,44,62,43.7,61,43.4c-1-0.3-2-0.7-3-1c-2.1-0.8-4.1-1.6-5.5-2.4
			C51,39.3,50,38.7,50,38.7s1.1,0.2,2.7,0.6c1.6,0.4,3.7,1.1,5.7,1.8c1,0.4,2,0.8,3,1.2c0.9,0.4,1.8,0.8,2.6,1.2
			C65.5,44.2,66.4,44.8,66.4,44.8z"/>
	</g>
	<ellipse transform="matrix(0.4907 0.8713 -0.8713 0.4907 60.0147 -42.8841)" cx="66.7" cy="29.9" rx="10.7" ry="4.1"/>
	<g>
		<path d="M66,28.6c0,0-0.7-0.9-1.6-2.2c-0.5-0.7-1-1.5-1.5-2.4c-0.5-0.9-1.1-1.8-1.6-2.8c-1-1.9-2-3.9-2.6-5.4
			c-0.6-1.5-1-2.6-1-2.6s0.7,0.9,1.6,2.2c0.9,1.4,2,3.3,3.1,5.2c0.5,1,1,1.9,1.4,2.9c0.4,0.9,0.8,1.8,1.1,2.6
			C65.7,27.5,66,28.6,66,28.6z"/>
	</g>
	<path d="M64.1,27.4c0,0,15.8,32.4,32.8,56.7S74,35.7,64.1,27.4z"/>
</g>
<g>
	<ellipse transform="matrix(0.4122 0.9111 -0.9111 0.4122 180.665 -31.3167)" cx="114.6" cy="124.4" rx="10.7" ry="4.1"/>
	<g>
		<path d="M114.1,123c0,0-0.6-0.9-1.4-2.4c-0.4-0.7-0.8-1.6-1.3-2.5c-0.5-0.9-0.9-1.9-1.3-2.9c-0.9-2-1.6-4.1-2.1-5.7
			c-0.5-1.6-0.7-2.7-0.7-2.7s0.6,0.9,1.4,2.4c0.8,1.4,1.8,3.4,2.6,5.4c0.4,1,0.8,2,1.2,3c0.4,1,0.7,1.9,0.9,2.7
			C113.8,121.9,114.1,123,114.1,123z"/>
	</g>
	<ellipse transform="matrix(0.4122 0.9111 -0.9111 0.4122 166.6233 -23.5796)" cx="101.6" cy="117.3" rx="10.7" ry="4.1"/>
	<g>
		<path d="M101.1,116c0,0-0.6-0.9-1.4-2.4c-0.4-0.7-0.8-1.6-1.3-2.5c-0.5-0.9-0.9-1.9-1.3-2.9c-0.9-2-1.6-4.1-2.1-5.7
			c-0.5-1.6-0.7-2.7-0.7-2.7s0.6,0.9,1.4,2.4c0.8,1.4,1.8,3.4,2.6,5.4c0.4,1,0.8,2,1.2,3c0.4,1,0.7,1.9,0.9,2.7
			C100.8,114.9,101.1,116,101.1,116z"/>
	</g>
	<ellipse transform="matrix(0.4122 0.9111 -0.9111 0.4122 152.5816 -15.8424)" cx="88.6" cy="110.3" rx="10.7" ry="4.1"/>
	<g>
		<path d="M88,109c0,0-0.6-0.9-1.4-2.4c-0.4-0.7-0.8-1.6-1.3-2.5c-0.5-0.9-0.9-1.9-1.3-2.9c-0.9-2-1.6-4.1-2.1-5.7
			c-0.5-1.6-0.7-2.7-0.7-2.7s0.6,0.9,1.4,2.4c0.8,1.4,1.8,3.4,2.6,5.4c0.4,1,0.8,2,1.2,3c0.4,1,0.7,1.9,0.9,2.7
			C87.8,107.9,88,109,88,109z"/>
	</g>
	<ellipse transform="matrix(0.4122 0.9111 -0.9111 0.4122 138.54 -8.1053)" cx="75.6" cy="103.3" rx="10.7" ry="4.1"/>
	<g>
		<path d="M75,102c0,0-0.6-0.9-1.4-2.4c-0.4-0.7-0.8-1.6-1.3-2.5c-0.5-0.9-0.9-1.9-1.3-2.9c-0.9-2-1.6-4.1-2.1-5.7
			c-0.5-1.6-0.7-2.7-0.7-2.7s0.6,0.9,1.4,2.4c0.8,1.4,1.8,3.4,2.6,5.4c0.4,1,0.8,2,1.2,3c0.4,1,0.7,1.9,0.9,2.7
			C74.8,100.9,75,102,75,102z"/>
	</g>
	<ellipse transform="matrix(0.9876 -0.1569 0.1569 0.9876 -19.9345 18.706)" cx="108.5" cy="135.6" rx="10.7" ry="4.1"/>
	<g>
		<path d="M107.1,135.9c0,0-1,0.4-2.6,0.9c-0.8,0.2-1.7,0.5-2.7,0.7c-1,0.2-2.1,0.4-3.1,0.7c-2.2,0.4-4.3,0.7-6,0.8
			c-1.6,0.1-2.8,0.1-2.8,0.1s1-0.4,2.6-0.9c1.6-0.5,3.7-1,5.9-1.4c1.1-0.2,2.2-0.4,3.2-0.5c1-0.1,2-0.2,2.8-0.3
			C106,135.9,107.1,135.9,107.1,135.9z"/>
	</g>
	<ellipse transform="matrix(0.9876 -0.1569 0.1569 0.9876 -18.9953 16.577)" cx="95.5" cy="128.6" rx="10.7" ry="4.1"/>
	<g>
		<path d="M94.1,128.9c0,0-1,0.4-2.6,0.9c-0.8,0.2-1.7,0.5-2.7,0.7c-1,0.2-2.1,0.4-3.1,0.7c-2.2,0.4-4.3,0.7-6,0.8
			c-1.6,0.1-2.8,0.1-2.8,0.1s1-0.4,2.6-0.9c1.6-0.5,3.7-1,5.9-1.4c1.1-0.2,2.2-0.4,3.2-0.5c1-0.1,2-0.2,2.8-0.3
			C93,128.9,94.1,128.9,94.1,128.9z"/>
	</g>
	<ellipse transform="matrix(0.9876 -0.1569 0.1569 0.9876 -18.0562 14.448)" cx="82.5" cy="121.6" rx="10.7" ry="4.1"/>
	<g>
		<path d="M81.1,121.9c0,0-1,0.4-2.6,0.9c-0.8,0.2-1.7,0.5-2.7,0.7c-1,0.2-2.1,0.4-3.1,0.7c-2.2,0.4-4.3,0.7-6,0.8
			c-1.6,0.1-2.8,0.1-2.8,0.1s1-0.4,2.6-0.9c1.6-0.5,3.7-1,5.9-1.4c1.1-0.2,2.2-0.4,3.2-0.5c1-0.1,2-0.2,2.8-0.3
			C80,121.9,81.1,121.9,81.1,121.9z"/>
	</g>
	<ellipse transform="matrix(0.9876 -0.1569 0.1569 0.9876 -17.1171 12.3189)" cx="69.5" cy="114.6" rx="10.7" ry="4.1"/>
	<g>
		<path d="M68.1,114.9c0,0-1,0.4-2.6,0.9c-0.8,0.2-1.7,0.5-2.7,0.7c-1,0.2-2.1,0.4-3.1,0.7c-2.2,0.4-4.3,0.7-6,0.8
			c-1.6,0.1-2.8,0.1-2.8,0.1s1-0.4,2.6-0.9c1.6-0.5,3.7-1,5.9-1.4c1.1-0.2,2.2-0.4,3.2-0.5c1-0.1,2-0.2,2.8-0.3
			C67,114.9,68.1,114.9,68.1,114.9z"/>
	</g>
	<ellipse transform="matrix(0.8668 0.4987 -0.4987 0.8668 58.9317 -16.689)" cx="60.7" cy="102" rx="10.7" ry="4.1"/>
	<g>
		<path d="M59.5,101.2c0,0-1.1-0.4-2.5-1.1c-0.7-0.4-1.6-0.8-2.5-1.3c-0.9-0.5-1.8-1-2.8-1.6c-1.9-1.1-3.7-2.4-5-3.4
			c-1.3-1-2.1-1.7-2.1-1.7s1.1,0.4,2.5,1.1c1.5,0.7,3.4,1.7,5.3,2.9c0.9,0.6,1.9,1.2,2.7,1.7c0.9,0.6,1.6,1.1,2.3,1.6
			C58.7,100.4,59.5,101.2,59.5,101.2z"/>
	</g>
	<path d="M57.3,101.1c0,0,30.1,19.8,57.1,32S70,103.2,57.3,101.1z"/>
</g>
</svg>
