<svg xmlns="http://www.w3.org/2000/svg" width="356" height="181" viewBox="0 0 356 181"><path d="M136.9 86.1s29.3 94.7 136 58.5l8-8s-103.6 49.4-141.1-55.6l-2.9 5.1zM96.7 87.7s63.2 96.6 179.9 38.7l3.2-5.8s-110.9 62.3-182.2-39.1l-.9 6.2zM116.9 135.9s83.6 45.4 154.9-30.1l1.1-9.5s-67.1 84.5-159 33.8l3 5.8zM180.8 71.3"/><ellipse transform="matrix(-.233 .972 -.972 -.233 250.102 -44.584)" cx="142.6" cy="76.3" rx="10.7" ry="4.1"/><path d="M143 74.9s.1-1.1.3-2.7c.1-.8.3-1.8.5-2.8l.7-3.1c.6-2.1 1.2-4.2 1.8-5.7.6-1.5 1.1-2.5 1.1-2.5s-.1 1.1-.3 2.7c-.3 1.6-.7 3.8-1.3 5.9-.3 1.1-.6 2.1-.9 3.1-.3 1-.6 1.9-.9 2.7-.5 1.4-1 2.4-1 2.4z"/><ellipse transform="matrix(-.233 .972 -.972 -.233 229.579 -55.45)" cx="136.6" cy="62.8" rx="10.7" ry="4.1"/><path d="M137 61.4s.1-1.1.3-2.7c.1-.8.3-1.8.5-2.8l.7-3.1c.6-2.1 1.2-4.2 1.8-5.7.6-1.5 1.1-2.5 1.1-2.5s-.1 1.1-.3 2.7c-.3 1.6-.7 3.8-1.3 5.9-.3 1.1-.6 2.1-.9 3.1-.3 1-.6 1.9-.9 2.7-.5 1.4-1 2.4-1 2.4z"/><ellipse transform="matrix(-.233 .972 -.972 -.233 209.055 -66.317)" cx="130.7" cy="49.3" rx="10.7" ry="4.1"/><path d="M131.1 47.9s.1-1.1.3-2.7c.1-.8.3-1.8.5-2.8l.7-3.1c.6-2.1 1.2-4.2 1.8-5.7.6-1.5 1.1-2.5 1.1-2.5s-.1 1.1-.3 2.7c-.3 1.6-.7 3.8-1.3 5.9-.3 1.1-.6 2.1-.9 3.1-.3 1-.6 1.9-.9 2.7-.5 1.4-1 2.4-1 2.4z"/><ellipse transform="matrix(-.233 .972 -.972 -.233 188.532 -77.184)" cx="124.7" cy="35.7" rx="10.7" ry="4.1"/><path d="M125.1 34.4s.1-1.1.3-2.7c.1-.8.3-1.8.5-2.8l.7-3.1c.6-2.1 1.2-4.2 1.8-5.7.6-1.5 1.1-2.5 1.1-2.5s-.1 1.1-.3 2.7c-.3 1.6-.7 3.8-1.3 5.9-.3 1.1-.6 2.1-.9 3.1-.3 1-.6 1.9-.9 2.7-.5 1.3-1 2.4-1 2.4z"/><ellipse transform="matrix(.876 .482 -.482 .876 55.47 -53.004)" cx="130.9" cy="81.5" rx="10.7" ry="4.1"/><path d="M129.6 80.8s-1.1-.3-2.6-.9c-.8-.3-1.7-.7-2.6-1.1-.9-.4-1.9-.9-2.9-1.4-1.9-1-3.8-2.1-5.2-3-1.4-.9-2.3-1.6-2.3-1.6s1.1.3 2.6.9c1.5.6 3.5 1.5 5.5 2.5 1 .5 1.9 1 2.8 1.6.9.5 1.7 1 2.4 1.5 1.5.8 2.3 1.5 2.3 1.5z"/><ellipse transform="matrix(.876 .482 -.482 .876 48.213 -51.797)" cx="124.9" cy="68" rx="10.7" ry="4.1"/><path d="M123.6 67.3s-1.1-.3-2.6-.9c-.8-.3-1.7-.7-2.6-1.1-.9-.4-1.9-.9-2.9-1.4-1.9-1-3.8-2.1-5.2-3-1.4-.9-2.3-1.6-2.3-1.6s1.1.3 2.6.9c1.5.6 3.5 1.5 5.5 2.5 1 .5 1.9 1 2.8 1.6.9.5 1.7 1 2.4 1.5 1.5.8 2.3 1.5 2.3 1.5z"/><ellipse transform="matrix(.876 .482 -.482 .876 40.956 -50.59)" cx="119" cy="54.4" rx="10.7" ry="4.1"/><path d="M117.7 53.8s-1.1-.3-2.6-.9c-.8-.3-1.7-.7-2.6-1.1-.9-.4-1.9-.9-2.9-1.4-1.9-1-3.8-2.1-5.2-3-1.4-.9-2.3-1.6-2.3-1.6s1.1.3 2.6.9c1.5.6 3.5 1.5 5.5 2.5 1 .5 1.9 1 2.8 1.6.9.5 1.7 1 2.4 1.5 1.4.8 2.3 1.5 2.3 1.5z"/><ellipse transform="matrix(.876 .482 -.482 .876 33.698 -49.383)" cx="113" cy="40.9" rx="10.7" ry="4.1"/><path d="M111.7 40.3s-1.1-.3-2.6-.9c-.8-.3-1.7-.7-2.6-1.1-.9-.4-1.9-.9-2.9-1.4-1.9-1-3.8-2.1-5.2-3-1.4-.9-2.3-1.6-2.3-1.6s1.1.3 2.6.9c1.5.6 3.5 1.5 5.5 2.5 1 .5 1.9 1 2.8 1.6.9.5 1.7 1 2.4 1.5 1.4.8 2.3 1.5 2.3 1.5z"/><ellipse transform="matrix(.379 .925 -.925 .379 94.355 -89.445)" cx="113.8" cy="25.6" rx="10.7" ry="4.1"/><path d="M113.3 24.2s-.6-.9-1.3-2.4c-.4-.7-.8-1.6-1.2-2.5-.4-.9-.8-2-1.2-3-.8-2-1.5-4.1-1.9-5.7-.4-1.6-.6-2.7-.6-2.7s.6.9 1.3 2.4c.7 1.5 1.6 3.5 2.4 5.5.4 1 .8 2.1 1.1 3 .3 1 .6 1.9.8 2.7.4 1.6.6 2.7.6 2.7zM111.6 22.8s11.6 34.1 25.5 60.3-16.7-50.9-25.5-60.3z"/><ellipse transform="matrix(-.111 .994 -.994 -.111 189.052 -15.812)" cx="101.6" cy="76.7" rx="10.7" ry="4.1"/><path d="M101.8 75.3s-.1-1.1 0-2.8c0-.8.1-1.8.2-2.8.1-1 .2-2.1.4-3.2.3-2.2.7-4.3 1.1-5.9.4-1.6.7-2.7.7-2.7s.1 1.1 0 2.8c-.1 1.7-.2 3.8-.5 6-.2 1.1-.3 2.2-.5 3.2s-.4 2-.6 2.8c-.4 1.5-.8 2.6-.8 2.6z"/><ellipse transform="matrix(-.111 .994 -.994 -.111 167.999 -22.329)" cx="94" cy="64" rx="10.7" ry="4.1"/><path d="M94.2 62.6s-.1-1.1 0-2.8c0-.8.1-1.8.2-2.8.1-1 .2-2.1.4-3.2.3-2.2.7-4.3 1.1-5.9.4-1.6.7-2.7.7-2.7s.1 1.1 0 2.8c-.1 1.7-.2 3.8-.5 6-.2 1.1-.3 2.2-.5 3.2s-.4 2-.6 2.8c-.4 1.5-.8 2.6-.8 2.6z"/><ellipse transform="matrix(-.111 .994 -.994 -.111 146.945 -28.846)" cx="86.4" cy="51.3" rx="10.7" ry="4.1"/><path d="M86.6 49.9s-.1-1.1 0-2.8c0-.8.1-1.8.2-2.8.1-1 .2-2.1.4-3.2.3-2.2.7-4.3 1.1-5.9.4-1.6.7-2.7.7-2.7s.1 1.1 0 2.8c-.1 1.7-.2 3.8-.5 6-.2 1.1-.3 2.2-.5 3.2s-.4 2-.6 2.8c-.4 1.5-.8 2.6-.8 2.6z"/><ellipse transform="matrix(-.111 .994 -.994 -.111 125.892 -35.362)" cx="78.8" cy="38.6" rx="10.7" ry="4.1"/><path d="M79 37.2s-.1-1.1 0-2.8c0-.8.1-1.8.2-2.8.1-1 .2-2.1.4-3.2.3-2.2.7-4.3 1.1-5.9.4-1.6.7-2.7.7-2.7s.1 1.1 0 2.8c-.1 1.7-.2 3.8-.5 6-.2 1.1-.3 2.2-.5 3.2s-.4 2-.6 2.8c-.4 1.6-.8 2.6-.8 2.6z"/><ellipse transform="matrix(.929 .369 -.369 .929 37.163 -27.584)" cx="90.6" cy="83.3" rx="10.7" ry="4.1"/><path d="M89.3 82.8s-1.1-.2-2.7-.6c-.8-.2-1.7-.5-2.7-.8l-3-1c-2.1-.8-4.1-1.6-5.5-2.4-1.5-.7-2.4-1.3-2.4-1.3s1.1.2 2.7.6c1.6.4 3.7 1.1 5.7 1.8l3 1.2c.9.4 1.8.8 2.6 1.2 1.3.7 2.3 1.3 2.3 1.3z"/><ellipse transform="matrix(.929 .369 -.369 .929 31.942 -25.669)" cx="83" cy="70.6" rx="10.7" ry="4.1"/><path d="M81.7 70.1s-1.1-.2-2.7-.6c-.8-.2-1.7-.5-2.7-.8l-3-1c-2.1-.8-4.1-1.6-5.5-2.4-1.5-.7-2.4-1.3-2.4-1.3s1.1.2 2.7.6c1.6.4 3.7 1.1 5.7 1.8l3 1.2c.9.4 1.8.8 2.6 1.2 1.3.7 2.3 1.3 2.3 1.3z"/><ellipse transform="matrix(.929 .369 -.369 .929 26.721 -23.755)" cx="75.4" cy="57.9" rx="10.7" ry="4.1"/><path d="M74 57.4s-1.1-.2-2.7-.6c-.8-.2-1.7-.5-2.7-.8l-3-1c-2.1-.8-4.1-1.6-5.5-2.4-1.5-.7-2.4-1.3-2.4-1.3s1.1.2 2.7.6c1.6.4 3.7 1.1 5.7 1.8l3 1.2c.9.4 1.8.8 2.6 1.2 1.4.7 2.3 1.3 2.3 1.3z"/><ellipse transform="matrix(.929 .369 -.369 .929 21.501 -21.84)" cx="67.8" cy="45.2" rx="10.7" ry="4.1"/><path d="M66.4 44.8s-1.1-.2-2.7-.6c-.8-.2-1.7-.5-2.7-.8l-3-1c-2.1-.8-4.1-1.6-5.5-2.4-1.5-.7-2.5-1.3-2.5-1.3s1.1.2 2.7.6c1.6.4 3.7 1.1 5.7 1.8l3 1.2c.9.4 1.8.8 2.6 1.2 1.5.7 2.4 1.3 2.4 1.3z"/><ellipse transform="matrix(.491 .871 -.871 .491 60.015 -42.884)" cx="66.7" cy="29.9" rx="10.7" ry="4.1"/><path d="M66 28.6s-.7-.9-1.6-2.2c-.5-.7-1-1.5-1.5-2.4-.5-.9-1.1-1.8-1.6-2.8-1-1.9-2-3.9-2.6-5.4-.6-1.5-1-2.6-1-2.6s.7.9 1.6 2.2c.9 1.4 2 3.3 3.1 5.2.5 1 1 1.9 1.4 2.9.4.9.8 1.8 1.1 2.6.8 1.4 1.1 2.5 1.1 2.5zM64.1 27.4s15.8 32.4 32.8 56.7-22.9-48.4-32.8-56.7z"/><ellipse transform="matrix(.412 .911 -.911 .412 180.665 -31.317)" cx="114.6" cy="124.4" rx="10.7" ry="4.1"/><path d="M114.1 123s-.6-.9-1.4-2.4l-1.3-2.5c-.5-.9-.9-1.9-1.3-2.9-.9-2-1.6-4.1-2.1-5.7-.5-1.6-.7-2.7-.7-2.7s.6.9 1.4 2.4c.8 1.4 1.8 3.4 2.6 5.4l1.2 3c.4 1 .7 1.9.9 2.7.4 1.6.7 2.7.7 2.7z"/><ellipse transform="matrix(.412 .911 -.911 .412 166.623 -23.58)" cx="101.6" cy="117.3" rx="10.7" ry="4.1"/><path d="M101.1 116s-.6-.9-1.4-2.4l-1.3-2.5c-.5-.9-.9-1.9-1.3-2.9-.9-2-1.6-4.1-2.1-5.7-.5-1.6-.7-2.7-.7-2.7s.6.9 1.4 2.4c.8 1.4 1.8 3.4 2.6 5.4l1.2 3c.4 1 .7 1.9.9 2.7.4 1.6.7 2.7.7 2.7z"/><ellipse transform="matrix(.412 .911 -.911 .412 152.582 -15.842)" cx="88.6" cy="110.3" rx="10.7" ry="4.1"/><path d="M88 109s-.6-.9-1.4-2.4l-1.3-2.5c-.5-.9-.9-1.9-1.3-2.9-.9-2-1.6-4.1-2.1-5.7-.5-1.6-.7-2.7-.7-2.7s.6.9 1.4 2.4c.8 1.4 1.8 3.4 2.6 5.4l1.2 3c.4 1 .7 1.9.9 2.7.5 1.6.7 2.7.7 2.7z"/><ellipse transform="matrix(.412 .911 -.911 .412 138.54 -8.105)" cx="75.6" cy="103.3" rx="10.7" ry="4.1"/><path d="M75 102s-.6-.9-1.4-2.4l-1.3-2.5c-.5-.9-.9-1.9-1.3-2.9-.9-2-1.6-4.1-2.1-5.7-.5-1.6-.7-2.7-.7-2.7s.6.9 1.4 2.4c.8 1.4 1.8 3.4 2.6 5.4l1.2 3c.4 1 .7 1.9.9 2.7.5 1.6.7 2.7.7 2.7z"/><ellipse transform="matrix(.988 -.157 .157 .988 -19.934 18.706)" cx="108.5" cy="135.6" rx="10.7" ry="4.1"/><path d="M107.1 135.9s-1 .4-2.6.9c-.8.2-1.7.5-2.7.7-1 .2-2.1.4-3.1.7-2.2.4-4.3.7-6 .8-1.6.1-2.8.1-2.8.1s1-.4 2.6-.9 3.7-1 5.9-1.4c1.1-.2 2.2-.4 3.2-.5 1-.1 2-.2 2.8-.3 1.6-.1 2.7-.1 2.7-.1z"/><ellipse transform="matrix(.988 -.157 .157 .988 -18.995 16.577)" cx="95.5" cy="128.6" rx="10.7" ry="4.1"/><path d="M94.1 128.9s-1 .4-2.6.9c-.8.2-1.7.5-2.7.7-1 .2-2.1.4-3.1.7-2.2.4-4.3.7-6 .8-1.6.1-2.8.1-2.8.1s1-.4 2.6-.9 3.7-1 5.9-1.4c1.1-.2 2.2-.4 3.2-.5 1-.1 2-.2 2.8-.3 1.6-.1 2.7-.1 2.7-.1z"/><ellipse transform="matrix(.988 -.157 .157 .988 -18.056 14.448)" cx="82.5" cy="121.6" rx="10.7" ry="4.1"/><path d="M81.1 121.9s-1 .4-2.6.9c-.8.2-1.7.5-2.7.7-1 .2-2.1.4-3.1.7-2.2.4-4.3.7-6 .8-1.6.1-2.8.1-2.8.1s1-.4 2.6-.9 3.7-1 5.9-1.4c1.1-.2 2.2-.4 3.2-.5 1-.1 2-.2 2.8-.3 1.6-.1 2.7-.1 2.7-.1z"/><ellipse transform="matrix(.988 -.157 .157 .988 -17.117 12.319)" cx="69.5" cy="114.6" rx="10.7" ry="4.1"/><path d="M68.1 114.9s-1 .4-2.6.9c-.8.2-1.7.5-2.7.7-1 .2-2.1.4-3.1.7-2.2.4-4.3.7-6 .8-1.6.1-2.8.1-2.8.1s1-.4 2.6-.9 3.7-1 5.9-1.4c1.1-.2 2.2-.4 3.2-.5 1-.1 2-.2 2.8-.3 1.6-.1 2.7-.1 2.7-.1z"/><ellipse transform="matrix(.867 .499 -.499 .867 58.932 -16.689)" cx="60.7" cy="102" rx="10.7" ry="4.1"/><path d="M59.5 101.2s-1.1-.4-2.5-1.1l-2.5-1.3c-.9-.5-1.8-1-2.8-1.6-1.9-1.1-3.7-2.4-5-3.4-1.3-1-2.1-1.7-2.1-1.7s1.1.4 2.5 1.1c1.5.7 3.4 1.7 5.3 2.9.9.6 1.9 1.2 2.7 1.7.9.6 1.6 1.1 2.3 1.6 1.3 1 2.1 1.8 2.1 1.8zM57.3 101.1s30.1 19.8 57.1 32-44.4-29.9-57.1-32z"/></svg>