<svg xmlns="http://www.w3.org/2000/svg" width="356" height="181" viewBox="0 0 356 181"><path d="M223.9 62.5s-5-14 18.5-22v2.5l12-8v3l10.5-6.5v3.5l10.5-7 1.5 3 11-7.5s1.5 8.5-1.5 13l7 2-7.5 8.5 3.5 1-12.5 7.5 3 2-15 5 3 1.5-16.5 4 3 2s-20.5 7.5-26.5-2c0 0-123 45-161 51.5l-6-8.5s70-13 163-48.5zm-70.6 10s-8.5-12.2 12-26.1l.7 2.4 9.4-10.9.8 2.9 8.4-9.1.9 3.4 8.3-9.5 2.2 2.5 8.6-10.2s3.7 7.8 2 12.9l7.3.1-4.9 10.1h3.6l-10.1 10.6 3.4 1.1-13.1 8.8 3.3.6-14.8 8.2 3.4 1.1s-17.8 12.7-26.1 5.1c0 0-106.6 76.1-141.5 92.4l-8-6.6c0 .2 64-30.9 144.2-89.8zm52.2 37.5s-.8 14.8 24 15.8l-.7-2.4 13.8 4.3-.9-2.9 11.9 3.2-1-3.4 12.1 3.7.6-3.3 12.7 4.1s-1-8.6-5.1-12l6.1-3.9-9.6-6 3.1-2-14.1-3.6 2.3-2.8-15.8-.5 2.4-2.3-17 .9 2.3-2.8s-21.8-1.4-24.8 9.5c0 0-130.7-8.2-169-3.6l-3.3 9.9c0-.1 70.8-7.5 170 .1zm52.4-20.9s1.3 14.8 26 12.2l-1.1-2.3 14.3 2.2-1.3-2.7 12.3 1.5-1.5-3.2 12.5 1.9.1-3.4 13.1 2.2s-2.2-8.3-6.8-11.2l5.5-4.8-10.4-4.6 2.8-2.4-14.5-1.6 1.9-3.1-15.7 1.8 2.1-2.6-16.7 3.3 1.9-3.1s-21.8 1.8-23.2 13c0 0-130.5 10.9-167.7 20.9l-1.9 10.2c0 .3 68.9-17.3 168.3-24.2z"/></svg>