<?xml version="1.0" encoding="utf-8"?>
<!-- Generator: Adobe Illustrator 18.1.1, SVG Export Plug-In . SVG Version: 6.00 Build 0)  -->
<!DOCTYPE svg PUBLIC "-//W3C//DTD SVG 1.1//EN" "http://www.w3.org/Graphics/SVG/1.1/DTD/svg11.dtd">
<svg version="1.1" id="Layer_1" xmlns="http://www.w3.org/2000/svg" xmlns:xlink="http://www.w3.org/1999/xlink" x="0px" y="0px"
	 width="356px" height="181px" viewBox="0 0 356 181" style="enable-background:new 0 0 356 181;" xml:space="preserve">
<path d="M188.5,86.1c0,0-29.3,94.7-136,58.5l-8-8c0,0,103.6,49.4,141.1-55.6L188.5,86.1z"/>
<path d="M228.8,87.7c0,0-63.2,96.6-179.9,38.7l-3.2-5.8c0,0,110.9,62.3,182.2-39.1L228.8,87.7z"/>
<path d="M208.5,135.9c0,0-83.6,45.4-154.9-30.1l-1.1-9.5c0,0,67.1,84.5,159,33.8L208.5,135.9z"/>
<path d="M144.7,71.3"/>
<g>
	<ellipse transform="matrix(0.2334 0.9724 -0.9724 0.2334 214.3584 -119.2868)" cx="182.8" cy="76.3" rx="10.7" ry="4.1"/>
	<g>
		<path d="M182.4,74.9c0,0-0.5-1-1.1-2.5c-0.3-0.8-0.6-1.7-0.9-2.7c-0.3-1-0.6-2-0.9-3.1c-0.6-2.1-1-4.3-1.3-5.9
			c-0.3-1.6-0.3-2.7-0.3-2.7s0.5,1,1.1,2.5c0.6,1.5,1.2,3.6,1.8,5.7c0.3,1.1,0.5,2.1,0.7,3.1c0.2,1,0.4,1.9,0.5,2.8
			C182.4,73.8,182.4,74.9,182.4,74.9z"/>
	</g>
	<ellipse transform="matrix(0.2334 0.9724 -0.9724 0.2334 205.791 -135.4678)" cx="188.8" cy="62.8" rx="10.7" ry="4.1"/>
	<g>
		<path d="M188.4,61.4c0,0-0.5-1-1.1-2.5c-0.3-0.8-0.6-1.7-0.9-2.7c-0.3-1-0.6-2-0.9-3.1c-0.6-2.1-1-4.3-1.3-5.9
			c-0.3-1.6-0.3-2.7-0.3-2.7s0.5,1,1.1,2.5c0.6,1.5,1.2,3.6,1.8,5.7c0.3,1.1,0.5,2.1,0.7,3.1c0.2,1,0.4,1.9,0.5,2.8
			C188.3,60.3,188.4,61.4,188.4,61.4z"/>
	</g>
	<ellipse transform="matrix(0.2334 0.9724 -0.9724 0.2334 197.2235 -151.6488)" cx="194.8" cy="49.3" rx="10.7" ry="4.1"/>
	<g>
		<path d="M194.4,47.9c0,0-0.5-1-1.1-2.5c-0.3-0.8-0.6-1.7-0.9-2.7c-0.3-1-0.6-2-0.9-3.1c-0.6-2.1-1-4.3-1.3-5.9
			c-0.3-1.6-0.3-2.7-0.3-2.7s0.5,1,1.1,2.5c0.6,1.5,1.2,3.6,1.8,5.7c0.3,1.1,0.5,2.1,0.7,3.1c0.2,1,0.4,1.9,0.5,2.8
			C194.3,46.8,194.4,47.9,194.4,47.9z"/>
	</g>
	<ellipse transform="matrix(0.2334 0.9724 -0.9724 0.2334 188.6561 -167.8298)" cx="200.8" cy="35.7" rx="10.7" ry="4.1"/>
	<g>
		<path d="M200.4,34.4c0,0-0.5-1-1.1-2.5c-0.3-0.8-0.6-1.7-0.9-2.7c-0.3-1-0.6-2-0.9-3.1c-0.6-2.1-1-4.3-1.3-5.9
			c-0.3-1.6-0.3-2.7-0.3-2.7s0.5,1,1.1,2.5c0.6,1.5,1.2,3.6,1.8,5.7c0.3,1.1,0.5,2.1,0.7,3.1c0.2,1,0.4,1.9,0.5,2.8
			C200.3,33.2,200.4,34.4,200.4,34.4z"/>
	</g>
	<ellipse transform="matrix(-0.8762 0.4819 -0.4819 -0.8762 404.2705 59.1165)" cx="194.5" cy="81.5" rx="10.7" ry="4.1"/>
	<g>
		<path d="M195.8,80.8c0,0,0.9-0.7,2.3-1.6c0.7-0.5,1.5-1,2.4-1.5c0.9-0.5,1.9-1,2.8-1.6c1.9-1,3.9-1.9,5.5-2.5
			c1.5-0.6,2.6-0.9,2.6-0.9s-0.9,0.7-2.3,1.6c-1.4,0.9-3.3,2-5.2,3c-1,0.5-2,1-2.9,1.4c-0.9,0.4-1.8,0.8-2.6,1.1
			C196.9,80.5,195.8,80.8,195.8,80.8z"/>
	</g>
	<ellipse transform="matrix(-0.8762 0.4819 -0.4819 -0.8762 408.9693 30.8618)" cx="200.5" cy="68" rx="10.7" ry="4.1"/>
	<g>
		<path d="M201.8,67.3c0,0,0.9-0.7,2.3-1.6c0.7-0.5,1.5-1,2.4-1.5c0.9-0.5,1.9-1,2.8-1.6c1.9-1,3.9-1.9,5.5-2.5
			c1.5-0.6,2.6-0.9,2.6-0.9s-0.9,0.7-2.3,1.6c-1.4,0.9-3.3,2-5.2,3c-1,0.5-2,1-2.9,1.4c-0.9,0.4-1.8,0.8-2.6,1.1
			C202.9,67,201.8,67.3,201.8,67.3z"/>
	</g>
	<ellipse transform="matrix(-0.8762 0.4819 -0.4819 -0.8762 413.6681 2.6071)" cx="206.5" cy="54.4" rx="10.7" ry="4.1"/>
	<g>
		<path d="M207.8,53.8c0,0,0.9-0.7,2.3-1.6c0.7-0.5,1.5-1,2.4-1.5c0.9-0.5,1.9-1,2.8-1.6c1.9-1,3.9-1.9,5.5-2.5
			c1.5-0.6,2.6-0.9,2.6-0.9s-0.9,0.7-2.3,1.6c-1.4,0.9-3.3,2-5.2,3c-1,0.5-2,1-2.9,1.4c-0.9,0.4-1.8,0.8-2.6,1.1
			C208.9,53.5,207.8,53.8,207.8,53.8z"/>
	</g>
	<ellipse transform="matrix(-0.8762 0.4819 -0.4819 -0.8762 418.3669 -25.6475)" cx="212.5" cy="40.9" rx="10.7" ry="4.1"/>
	<g>
		<path d="M213.8,40.3c0,0,0.9-0.7,2.3-1.6c0.7-0.5,1.5-1,2.4-1.5c0.9-0.5,1.9-1,2.8-1.6c1.9-1,3.9-1.9,5.5-2.5
			c1.5-0.6,2.6-0.9,2.6-0.9s-0.9,0.7-2.3,1.6c-1.4,0.9-3.3,2-5.2,3c-1,0.5-2,1-2.9,1.4c-0.9,0.4-1.8,0.8-2.6,1.1
			C214.8,40,213.8,40.3,213.8,40.3z"/>
	</g>
	<ellipse transform="matrix(-0.3787 0.9255 -0.9255 -0.3787 315.4583 -160.6703)" cx="211.7" cy="25.6" rx="10.7" ry="4.1"/>
	<g>
		<path d="M212.1,24.2c0,0,0.2-1.1,0.6-2.7c0.2-0.8,0.5-1.7,0.8-2.7c0.3-1,0.7-2,1.1-3c0.8-2,1.7-4.1,2.4-5.5
			c0.7-1.5,1.3-2.4,1.3-2.4s-0.2,1.1-0.6,2.7c-0.4,1.6-1.1,3.7-1.9,5.7c-0.4,1-0.8,2-1.2,3c-0.4,0.9-0.8,1.8-1.2,2.5
			C212.7,23.3,212.1,24.2,212.1,24.2z"/>
	</g>
	<path d="M213.9,22.8c0,0-11.6,34.1-25.5,60.3S205.1,32.2,213.9,22.8z"/>
</g>
<g>
	<ellipse transform="matrix(0.1108 0.9938 -0.9938 0.1108 275.2501 -154.3046)" cx="223.9" cy="76.7" rx="10.7" ry="4.1"/>
	<g>
		<path d="M223.6,75.3c0,0-0.4-1.1-0.7-2.7c-0.2-0.8-0.4-1.7-0.6-2.8c-0.2-1-0.3-2.1-0.5-3.2c-0.3-2.2-0.5-4.4-0.5-6
			c-0.1-1.6,0-2.8,0-2.8s0.4,1.1,0.7,2.7c0.4,1.6,0.8,3.8,1.1,5.9c0.1,1.1,0.3,2.2,0.4,3.2c0.1,1,0.1,2,0.2,2.8
			C223.7,74.1,223.6,75.3,223.6,75.3z"/>
	</g>
	<ellipse transform="matrix(0.1108 0.9938 -0.9938 0.1108 269.4192 -173.1413)" cx="231.5" cy="64" rx="10.7" ry="4.1"/>
	<g>
		<path d="M231.2,62.6c0,0-0.4-1.1-0.7-2.7c-0.2-0.8-0.4-1.7-0.6-2.8c-0.2-1-0.3-2.1-0.5-3.2c-0.3-2.2-0.5-4.4-0.5-6
			c-0.1-1.6,0-2.8,0-2.8s0.4,1.1,0.7,2.7c0.4,1.6,0.8,3.8,1.1,5.9c0.1,1.1,0.3,2.2,0.4,3.2c0.1,1,0.1,2,0.2,2.8
			C231.3,61.5,231.2,62.6,231.2,62.6z"/>
	</g>
	<ellipse transform="matrix(0.1108 0.9938 -0.9938 0.1108 263.5884 -191.9779)" cx="239.1" cy="51.3" rx="10.7" ry="4.1"/>
	<g>
		<path d="M238.9,49.9c0,0-0.4-1.1-0.7-2.7c-0.2-0.8-0.4-1.7-0.6-2.8c-0.2-1-0.3-2.1-0.5-3.2c-0.3-2.2-0.5-4.4-0.5-6
			c-0.1-1.6,0-2.8,0-2.8s0.4,1.1,0.7,2.7c0.4,1.6,0.8,3.8,1.1,5.9c0.1,1.1,0.3,2.2,0.4,3.2c0.1,1,0.1,2,0.2,2.8
			C238.9,48.8,238.9,49.9,238.9,49.9z"/>
	</g>
	<ellipse transform="matrix(0.1108 0.9938 -0.9938 0.1108 257.7576 -210.8146)" cx="246.7" cy="38.6" rx="10.7" ry="4.1"/>
	<g>
		<path d="M246.5,37.2c0,0-0.4-1.1-0.7-2.7c-0.2-0.8-0.4-1.7-0.6-2.8c-0.2-1-0.3-2.1-0.5-3.2c-0.3-2.2-0.5-4.4-0.5-6
			c-0.1-1.6,0-2.8,0-2.8s0.4,1.1,0.7,2.7c0.4,1.6,0.8,3.8,1.1,5.9c0.1,1.1,0.3,2.2,0.4,3.2c0.1,1,0.1,2,0.2,2.8
			C246.5,36.1,246.5,37.2,246.5,37.2z"/>
	</g>
	<ellipse transform="matrix(-0.9293 0.3694 -0.3694 -0.9293 483.8195 73.8899)" cx="234.8" cy="83.3" rx="10.7" ry="4.1"/>
	<g>
		<path d="M236.2,82.8c0,0,0.9-0.6,2.4-1.3c0.7-0.4,1.6-0.8,2.6-1.2c0.9-0.4,2-0.8,3-1.2c2.1-0.8,4.1-1.4,5.7-1.8
			c1.6-0.4,2.7-0.6,2.7-0.6s-0.9,0.6-2.4,1.3c-1.5,0.7-3.5,1.6-5.5,2.4c-1,0.4-2.1,0.7-3,1c-1,0.3-1.9,0.6-2.7,0.8
			C237.3,82.6,236.2,82.8,236.2,82.8z"/>
	</g>
	<ellipse transform="matrix(-0.9293 0.3694 -0.3694 -0.9293 493.8212 46.6213)" cx="242.4" cy="70.6" rx="10.7" ry="4.1"/>
	<g>
		<path d="M243.8,70.1c0,0,0.9-0.6,2.4-1.3c0.7-0.4,1.6-0.8,2.6-1.2c0.9-0.4,2-0.8,3-1.2c2.1-0.8,4.1-1.4,5.7-1.8
			c1.6-0.4,2.7-0.6,2.7-0.6s-0.9,0.6-2.4,1.3c-1.5,0.7-3.5,1.6-5.5,2.4c-1,0.4-2.1,0.7-3,1c-1,0.3-1.9,0.6-2.7,0.8
			C244.9,69.9,243.8,70.1,243.8,70.1z"/>
	</g>
	<ellipse transform="matrix(-0.9293 0.3694 -0.3694 -0.9293 503.8229 19.3528)" cx="250.1" cy="57.9" rx="10.7" ry="4.1"/>
	<g>
		<path d="M251.4,57.4c0,0,0.9-0.6,2.4-1.3c0.7-0.4,1.6-0.8,2.6-1.2c0.9-0.4,2-0.8,3-1.2c2.1-0.8,4.1-1.4,5.7-1.8
			c1.6-0.4,2.7-0.6,2.7-0.6s-0.9,0.6-2.4,1.3c-1.5,0.7-3.5,1.6-5.5,2.4c-1,0.4-2.1,0.7-3,1c-1,0.3-1.9,0.6-2.7,0.8
			C252.5,57.3,251.4,57.4,251.4,57.4z"/>
	</g>
	<ellipse transform="matrix(-0.9293 0.3694 -0.3694 -0.9293 513.8247 -7.9158)" cx="257.7" cy="45.2" rx="10.7" ry="4.1"/>
	<g>
		<path d="M259,44.8c0,0,0.9-0.6,2.4-1.3c0.7-0.4,1.6-0.8,2.6-1.2c0.9-0.4,2-0.8,3-1.2c2.1-0.8,4.1-1.4,5.7-1.8
			c1.6-0.4,2.7-0.6,2.7-0.6s-0.9,0.6-2.4,1.3c-1.5,0.7-3.5,1.6-5.5,2.4c-1,0.4-2.1,0.7-3,1c-1,0.3-1.9,0.6-2.7,0.8
			C260.1,44.6,259,44.8,259,44.8z"/>
	</g>
	<ellipse transform="matrix(-0.4907 0.8713 -0.8713 -0.4907 411.7824 -180.9131)" cx="258.8" cy="29.9" rx="10.7" ry="4.1"/>
	<g>
		<path d="M259.4,28.6c0,0,0.3-1.1,1-2.6c0.3-0.8,0.7-1.6,1.1-2.6c0.4-0.9,0.9-1.9,1.4-2.9c1-1.9,2.2-3.8,3.1-5.2
			c0.9-1.4,1.6-2.2,1.6-2.2s-0.3,1.1-1,2.6c-0.6,1.5-1.6,3.5-2.6,5.4c-0.5,1-1.1,1.9-1.6,2.8c-0.5,0.9-1,1.7-1.5,2.4
			C260.1,27.8,259.4,28.6,259.4,28.6z"/>
	</g>
	<path d="M261.3,27.4c0,0-15.8,32.4-32.8,56.7S251.4,35.7,261.3,27.4z"/>
</g>
<g>
	<ellipse transform="matrix(-0.4122 0.9111 -0.9111 -0.4122 411.0636 -16.496)" cx="210.9" cy="124.4" rx="10.7" ry="4.1"/>
	<g>
		<path d="M211.4,123c0,0,0.2-1.1,0.7-2.7c0.2-0.8,0.6-1.7,0.9-2.7c0.3-1,0.8-2,1.2-3c0.9-2,1.8-4,2.6-5.4c0.8-1.4,1.4-2.4,1.4-2.4
			s-0.2,1.1-0.7,2.7c-0.5,1.6-1.2,3.6-2.1,5.7c-0.4,1-0.9,2-1.3,2.9c-0.4,0.9-0.9,1.8-1.3,2.5C212,122.1,211.4,123,211.4,123z"/>
	</g>
	<ellipse transform="matrix(-0.4122 0.9111 -0.9111 -0.4122 423.0559 -38.2603)" cx="223.9" cy="117.3" rx="10.7" ry="4.1"/>
	<g>
		<path d="M224.4,116c0,0,0.2-1.1,0.7-2.7c0.2-0.8,0.6-1.7,0.9-2.7c0.3-1,0.8-2,1.2-3c0.9-2,1.8-4,2.6-5.4c0.8-1.4,1.4-2.4,1.4-2.4
			s-0.2,1.1-0.7,2.7c-0.5,1.6-1.2,3.6-2.1,5.7c-0.4,1-0.9,2-1.3,2.9c-0.4,0.9-0.9,1.8-1.3,2.5C225,115.1,224.4,116,224.4,116z"/>
	</g>
	<ellipse transform="matrix(-0.4122 0.9111 -0.9111 -0.4122 435.0483 -60.0245)" cx="236.9" cy="110.3" rx="10.7" ry="4.1"/>
	<g>
		<path d="M237.4,109c0,0,0.2-1.1,0.7-2.7c0.2-0.8,0.6-1.7,0.9-2.7c0.3-1,0.8-2,1.2-3c0.9-2,1.8-4,2.6-5.4c0.8-1.4,1.4-2.4,1.4-2.4
			s-0.2,1.1-0.7,2.7c-0.5,1.6-1.2,3.6-2.1,5.7c-0.4,1-0.9,2-1.3,2.9c-0.4,0.9-0.9,1.8-1.3,2.5C238.1,108.1,237.4,109,237.4,109z"/>
	</g>
	<ellipse transform="matrix(-0.4122 0.9111 -0.9111 -0.4122 447.0406 -81.7888)" cx="249.9" cy="103.3" rx="10.7" ry="4.1"/>
	<g>
		<path d="M250.4,102c0,0,0.2-1.1,0.7-2.7c0.2-0.8,0.6-1.7,0.9-2.7c0.3-1,0.8-2,1.2-3c0.9-2,1.8-4,2.6-5.4c0.8-1.4,1.4-2.4,1.4-2.4
			s-0.2,1.1-0.7,2.7c-0.5,1.6-1.2,3.6-2.1,5.7c-0.4,1-0.9,2-1.3,2.9c-0.4,0.9-0.9,1.8-1.3,2.5C251.1,101.1,250.4,102,250.4,102z"/>
	</g>
	<ellipse transform="matrix(-0.9876 -0.1569 0.1569 -0.9876 409.8913 303.6129)" cx="216.9" cy="135.6" rx="10.7" ry="4.1"/>
	<g>
		<path d="M218.3,135.9c0,0,1.1,0,2.8,0.1c0.8,0.1,1.8,0.2,2.8,0.3c1,0.1,2.1,0.3,3.2,0.5c2.2,0.4,4.3,0.9,5.9,1.4
			c1.6,0.5,2.6,0.9,2.6,0.9s-1.1,0-2.8-0.1c-1.6-0.1-3.8-0.4-6-0.8c-1.1-0.2-2.1-0.4-3.1-0.7c-1-0.2-1.9-0.5-2.7-0.7
			C219.4,136.3,218.3,135.9,218.3,135.9z"/>
	</g>
	<ellipse transform="matrix(-0.9876 -0.1569 0.1569 -0.9876 436.8644 291.7149)" cx="229.9" cy="128.6" rx="10.7" ry="4.1"/>
	<g>
		<path d="M231.3,128.9c0,0,1.1,0,2.8,0.1c0.8,0.1,1.8,0.2,2.8,0.3c1,0.1,2.1,0.3,3.2,0.5c2.2,0.4,4.3,0.9,5.9,1.4
			c1.6,0.5,2.6,0.9,2.6,0.9s-1.1,0-2.8-0.1c-1.6-0.1-3.8-0.4-6-0.8c-1.1-0.2-2.1-0.4-3.1-0.7c-1-0.2-1.9-0.5-2.7-0.7
			C232.4,129.3,231.3,128.9,231.3,128.9z"/>
	</g>
	<ellipse transform="matrix(-0.9876 -0.1569 0.1569 -0.9876 463.8376 279.8167)" cx="243" cy="121.6" rx="10.7" ry="4.1"/>
	<g>
		<path d="M244.4,121.9c0,0,1.1,0,2.8,0.1c0.8,0.1,1.8,0.2,2.8,0.3c1,0.1,2.1,0.3,3.2,0.5c2.2,0.4,4.3,0.9,5.9,1.4
			c1.6,0.5,2.6,0.9,2.6,0.9s-1.1,0-2.8-0.1c-1.6-0.1-3.8-0.4-6-0.8c-1.1-0.2-2.1-0.4-3.1-0.7c-1-0.2-1.9-0.5-2.7-0.7
			C245.4,122.3,244.4,121.9,244.4,121.9z"/>
	</g>
	<ellipse transform="matrix(-0.9876 -0.1569 0.1569 -0.9876 490.8108 267.9187)" cx="256" cy="114.6" rx="10.7" ry="4.1"/>
	<g>
		<path d="M257.4,114.9c0,0,1.1,0,2.8,0.1c0.8,0.1,1.8,0.2,2.8,0.3c1,0.1,2.1,0.3,3.2,0.5c2.2,0.4,4.3,0.9,5.9,1.4
			c1.6,0.5,2.6,0.9,2.6,0.9s-1.1,0-2.8-0.1c-1.6-0.1-3.8-0.4-6-0.8c-1.1-0.2-2.1-0.4-3.1-0.7c-1-0.2-1.9-0.5-2.7-0.7
			C258.4,115.3,257.4,114.9,257.4,114.9z"/>
	</g>
	<ellipse transform="matrix(-0.8668 0.4987 -0.4987 -0.8668 545.0822 58.3181)" cx="264.8" cy="102" rx="10.7" ry="4.1"/>
	<g>
		<path d="M266,101.2c0,0,0.8-0.8,2.1-1.7c0.7-0.5,1.4-1.1,2.3-1.6c0.8-0.6,1.8-1.2,2.7-1.7c1.9-1.1,3.8-2.2,5.3-2.9
			c1.5-0.7,2.5-1.1,2.5-1.1s-0.8,0.8-2.1,1.7c-1.3,1-3.1,2.2-5,3.4c-0.9,0.6-1.9,1.1-2.8,1.6c-0.9,0.5-1.8,0.9-2.5,1.3
			C267,100.8,266,101.2,266,101.2z"/>
	</g>
	<path d="M268.2,101.1c0,0-30.1,19.8-57.1,32S255.5,103.2,268.2,101.1z"/>
</g>
</svg>
