<?xml version="1.0" encoding="utf-8"?>
<!-- Generator: Adobe Illustrator 18.1.1, SVG Export Plug-In . SVG Version: 6.00 Build 0)  -->
<!DOCTYPE svg PUBLIC "-//W3C//DTD SVG 1.1//EN" "http://www.w3.org/Graphics/SVG/1.1/DTD/svg11.dtd">
<svg version="1.1" id="Layer_1" xmlns="http://www.w3.org/2000/svg" xmlns:xlink="http://www.w3.org/1999/xlink" x="0px" y="0px"
	 width="356px" height="181px" viewBox="0 0 356 181" style="enable-background:new 0 0 356 181;" xml:space="preserve">
<path d="M223.9,62.5c0,0-5-14,18.5-22V43l12-8v3l10.5-6.5V35l10.5-7l1.5,3l11-7.5c0,0,1.5,8.5-1.5,13l7,2l-7.5,8.5l3.5,1l-12.5,7.5
	l3,2l-15,5l3,1.5l-16.5,4l3,2c0,0-20.5,7.5-26.5-2c0,0-123,45-161,51.5l-6-8.5C60.9,111,130.9,98,223.9,62.5z"/>
<path d="M153.3,72.5c0,0-8.5-12.2,12-26.1l0.7,2.4l9.4-10.9l0.8,2.9l8.4-9.1l0.9,3.4l8.3-9.5l2.2,2.5l8.6-10.2c0,0,3.7,7.8,2,12.9
	l7.3,0.1L209,41l3.6,0l-10.1,10.6l3.4,1.1l-13.1,8.8l3.3,0.6l-14.8,8.2l3.4,1.1c0,0-17.8,12.7-26.1,5.1c0,0-106.6,76.1-141.5,92.4
	l-8-6.6C9.1,162.5,73.1,131.4,153.3,72.5z"/>
<path d="M205.5,110c0,0-0.8,14.8,24,15.8l-0.7-2.4l13.8,4.3l-0.9-2.9l11.9,3.2l-1-3.4l12.1,3.7l0.6-3.3l12.7,4.1c0,0-1-8.6-5.1-12
	l6.1-3.9l-9.6-6l3.1-2l-14.1-3.6l2.3-2.8l-15.8-0.5l2.4-2.3l-17,0.9l2.3-2.8c0,0-21.8-1.4-24.8,9.5c0,0-130.7-8.2-169-3.6l-3.3,9.9
	C35.5,109.8,106.3,102.4,205.5,110z"/>
<path d="M257.9,89.1c0,0,1.3,14.8,26,12.2l-1.1-2.3l14.3,2.2l-1.3-2.7l12.3,1.5l-1.5-3.2l12.5,1.9l0.1-3.4l13.1,2.2
	c0,0-2.2-8.3-6.8-11.2l5.5-4.8l-10.4-4.6l2.8-2.4l-14.5-1.6l1.9-3.1l-15.7,1.8l2.1-2.6l-16.7,3.3l1.9-3.1c0,0-21.8,1.8-23.2,13
	c0,0-130.5,10.9-167.7,20.9l-1.9,10.2C89.6,113.6,158.5,96,257.9,89.1z"/>
</svg>
